<svg xmlns="http://www.w3.org/2000/svg" width="64" height="64" viewBox="0 0 64 64">
  <g fill="none" fill-rule="evenodd">
    <path fill="#2E3329" d="M24 56l8 4v4l-4-2-4-6zm0-8l8 4v8l-8-4.009V48z"/>
    <path fill="#505947" d="M32 64V52l8-4v8l-4 6z"/>
    <path fill="#505947" d="M40 48l-8-4-8 4 8 4z"/>
    <path fill="#FAFAFA" fill-opacity=".7" d="M32 40l16 8-16 8-16-8z"/>
    <path fill="#F0F0F0" fill-opacity=".7" d="M32 0v40l-16 8-8-8V12.008z"/>
    <path fill="#E6E6E6" fill-opacity=".7" d="M32 40V0l24 12v28l-8 8z"/>
    <path fill="#505947" d="M28 28l4-2.011L34 35l-4 2zm12 2l-4 14v4l-3.998 1.999L32 46l4-14v-4l4-2z"/>
    <path fill="#2E3329" d="M24 26v-4l12 6v4l-4 14-.002 3.999L28 48v-4l-4-18zm4 2l2 9 2-7-4-2z"/>
    <path fill="#738066" d="M24 22l4-2 12.002 5.993L36 28z"/>
    <path fill="#E6E6E6" fill-opacity=".7" d="M8 40V12l24 12v32l-16-8z"/>
    <path fill="#F0F0F0" fill-opacity=".7" d="M55.99 40.01L48 48l-16 8V24.008L56 12v28.005l-.01.005z"/>
    <path fill="#FAFAFA" fill-opacity=".7" d="M32 0l24 12-24 12L8 12z"/>
  </g>
</svg>
